# File created by Blade
# Date/Time:  Tue Apr 07 20:17:56 2015
# Frame Rate: 120.000 fps
#------------------------------------------------------
:FULLY-SPECIFIED
:DEGREES
1376
root 6.709591 34.430379 -12.215469 31.445055 -13.057936 -52.231053
Spine -7.260417 11.902979 39.111832
Head -0.333469 5.253211 11.100571
LeftShoulder -25.256761 44.761041 19.042848
LeftArm 48.045204 -51.036612 -83.299063
LeftForeArm -7.388659 -0.000000 5.068180
LeftHand 18.355132 -0.000000 15.485171
LeftHandThumb1 -26.253704 0.000000 33.147579
RightShoulder -4.641275 5.533852 -11.481341
RightArm -5.829895 47.320441 55.583043
RightForeArm 65.271479 -0.000000 32.651078
RightHand 6.773992 -0.000000 -2.119973
RightHandThumb1 -24.326973 -0.000000 -32.862282
LeftUpLeg -22.351117 4.713172 47.340109
LeftLeg 21.437537 -0.000000 -0.000000
LeftFoot -13.699152 19.834369 -14.687819
LeftToeBase -11.301626 -0.000000 0.000000
RightUpLeg -64.813205 -38.545986 -38.063211
RightLeg 74.608585 -0.000000 -0.000000
RightFoot 43.282109 -2.016032 -6.969857
RightToeBase 36.937197 -0.000000 -0.000000
1377
root 6.676057 34.463530 -12.183443 31.648279 -12.805660 -52.424741
Spine -7.586641 11.874831 39.297677
Head -0.018798 5.221704 11.547347
LeftShoulder -25.289604 44.744147 19.092043
LeftArm 47.876452 -51.229541 -83.141867
LeftForeArm -7.307561 0.000000 5.116601
LeftHand 18.372472 0.000000 15.634244
LeftHandThumb1 -26.253704 0.000000 33.147579
RightShoulder -5.079279 5.502092 -11.417488
RightArm -6.362819 48.249040 55.553122
RightForeArm 63.985719 0.000000 34.370211
RightHand 6.737805 0.000000 -3.125560
RightHandThumb1 -24.326973 -0.000000 -32.862282
LeftUpLeg -22.277340 4.674405 47.656457
LeftLeg 20.994789 -0.000000 -0.000000
LeftFoot -13.367497 20.096879 -14.336302
LeftToeBase -11.547643 -0.000000 0.000000
RightUpLeg -64.011353 -38.583272 -38.842539
RightLeg 74.844795 -0.000000 -0.000000
RightFoot 43.322263 -1.773970 -7.014268
RightToeBase 36.979482 -0.000000 -0.000000
1378
root 6.646093 34.496924 -12.152243 31.868159 -12.500498 -52.529415
Spine -7.989581 11.750183 39.422306
Head 0.258320 5.171674 12.034594
LeftShoulder -25.453135 44.766777 19.011984
LeftArm 47.866340 -51.446683 -83.043605
LeftForeArm -7.279036 -0.000000 5.087611
LeftHand 18.338648 0.000000 15.782730
LeftHandThumb1 -26.253704 0.000000 33.147579
RightShoulder -5.490487 5.438163 -11.358217
RightArm -6.804344 49.147571 55.555020
RightForeArm 62.505590 -0.000000 36.064132
RightHand 6.362384 -0.000000 -3.852302
RightHandThumb1 -24.326973 -0.000000 -32.862282
LeftUpLeg -22.306646 4.587429 47.923525
LeftLeg 20.571934 -0.000000 -0.000000
LeftFoot -13.220463 20.298026 -14.279398
LeftToeBase -11.487871 -0.000000 0.000000
RightUpLeg -63.192850 -38.728243 -39.659797
RightLeg 75.096353 -0.000000 -0.000000
RightFoot 43.435657 -1.491990 -7.293158
RightToeBase 36.840935 -0.000000 -0.000000
1379
root 6.607678 34.532669 -12.121779 32.075276 -12.222641 -52.697323
Spine -8.348728 11.687580 39.555509
Head 0.555453 5.085644 12.624101
LeftShoulder -25.538015 44.778153 19.021459
LeftArm 47.855757 -51.672000 -82.912759
LeftForeArm -7.322618 -0.000000 4.971834
LeftHand 18.333351 -0.000000 15.857943
LeftHandThumb1 -26.253704 0.000000 33.147579
RightShoulder -5.915119 5.349908 -11.333510
RightArm -7.308893 49.903561 55.521980
RightForeArm 61.265360 -0.000000 37.764502
RightHand 6.135675 -0.000000 -5.107095
RightHandThumb1 -24.326973 -0.000000 -32.862282
LeftUpLeg -22.254245 4.543757 48.249070
LeftLeg 20.136512 -0.000000 -0.000000
LeftFoot -13.087150 20.446644 -14.252986
LeftToeBase -11.196230 -0.000000 0.000000
RightUpLeg -62.371617 -38.766701 -40.481108
RightLeg 75.412764 -0.000000 -0.000000
RightFoot 43.385272 -1.074812 -7.424832
RightToeBase 37.079664 -0.000000 -0.000000
1380
root 6.572701 34.564733 -12.096889 32.225614 -11.932346 -52.770831
Spine -8.696334 11.584989 39.594881
Head 0.816913 4.989166 13.269825
LeftShoulder -25.591239 44.796955 19.071584
LeftArm 48.008608 -51.934059 -82.929234
LeftForeArm -7.316536 -0.000000 4.793998
LeftHand 18.250575 -0.000000 15.815120
LeftHandThumb1 -26.253704 0.000000 33.147579
RightShoulder -6.333545 5.298057 -11.364065
RightArm -7.877897 50.574627 55.488508
RightForeArm 60.435036 -0.000000 39.469555
RightHand 6.106854 -0.000000 -6.732189
RightHandThumb1 -24.326973 -0.000000 -32.862282
LeftUpLeg -22.249128 4.444495 48.499028
LeftLeg 19.733918 -0.000000 -0.000000
LeftFoot -12.978342 20.561086 -14.307591
LeftToeBase -10.952643 -0.000000 0.000000
RightUpLeg -61.442760 -38.815407 -41.460788
RightLeg 75.691109 -0.000000 -0.000000
RightFoot 43.449133 -0.687329 -7.437828
RightToeBase 37.079371 -0.000000 -0.000000
1381
root 6.532607 34.599111 -12.070972 32.430859 -11.653493 -52.896379
Spine -9.075187 11.547866 39.656863
Head 1.087841 4.893904 13.938921
LeftShoulder -25.623152 44.781286 19.133113
LeftArm 48.082528 -52.181420 -82.785165
LeftForeArm -7.435673 -0.000000 4.548095
LeftHand 18.183506 -0.000000 15.699346
LeftHandThumb1 -26.253704 0.000000 33.147579
RightShoulder -6.744529 5.079259 -11.423838
RightArm -8.337011 51.351358 55.609157
RightForeArm 59.859996 -0.000000 41.278009
RightHand 5.745784 -0.000000 -8.102283
RightHandThumb1 -24.326973 -0.000000 -32.862282
LeftUpLeg -22.230471 4.523759 48.774105
LeftLeg 19.306725 -0.000000 -0.000000
LeftFoot -12.772742 20.573427 -14.247268
LeftToeBase -11.060233 -0.000000 0.000000
RightUpLeg -60.586647 -38.840327 -42.345194
RightLeg 75.946433 -0.000000 -0.000000
RightFoot 43.494566 -0.416466 -7.401465
RightToeBase 37.337670 -0.000000 -0.000000
1382
root 6.490867 34.633905 -12.046870 32.588189 -11.387384 -53.067783
Spine -9.341243 11.487565 39.756606
Head 1.251786 4.838037 14.637825
LeftShoulder -25.724082 44.746983 19.152008
LeftArm 48.441564 -52.585897 -82.933819
LeftForeArm -7.298535 -0.000000 4.235161
LeftHand 18.221042 -0.000000 15.320974
LeftHandThumb1 -26.253704 0.000000 33.147579
RightShoulder -7.110828 5.061180 -11.527836
RightArm -9.068176 52.205703 55.555413
RightForeArm 58.964597 -0.000000 43.111018
RightHand 5.643095 -0.000000 -9.509204
RightHandThumb1 -24.326973 -0.000000 -32.862282
LeftUpLeg -22.142727 4.632151 49.086873
LeftLeg 18.877039 -0.000000 -0.000000
LeftFoot -12.592768 20.532176 -14.253196
LeftToeBase -10.937921 -0.000000 0.000000
RightUpLeg -59.699890 -38.753285 -43.214172
RightLeg 76.183110 -0.000000 -0.000000
RightFoot 43.432598 -0.221617 -7.360939
RightToeBase 37.675495 -0.000000 -0.000000
